<svg width="33" height="34" viewBox="0 0 33 34" fill="none" xmlns="http://www.w3.org/2000/svg">
<path id="Vector" d="M16.5 0.75C13.2861 0.75 10.1443 1.70305 7.47199 3.48862C4.79969 5.27419 2.71689 7.81209 1.48696 10.7814C0.257041 13.7507 -0.0647633 17.018 0.562247 20.1702C1.18926 23.3224 2.73692 26.2179 5.00952 28.4905C7.28213 30.7631 10.1776 32.3107 13.3298 32.9378C16.482 33.5648 19.7493 33.243 22.7186 32.013C25.6879 30.7831 28.2258 28.7003 30.0114 26.028C31.797 23.3557 32.75 20.2139 32.75 17C32.7446 12.6919 31.0309 8.56175 27.9846 5.51545C24.9383 2.46915 20.8081 0.755375 16.5 0.75ZM22.75 18.25H17.75V23.25C17.75 23.5815 17.6183 23.8995 17.3839 24.1339C17.1495 24.3683 16.8315 24.5 16.5 24.5C16.1685 24.5 15.8505 24.3683 15.6161 24.1339C15.3817 23.8995 15.25 23.5815 15.25 23.25V18.25H10.25C9.91849 18.25 9.60054 18.1183 9.36612 17.8839C9.1317 17.6495 9.00001 17.3315 9.00001 17C9.00001 16.6685 9.1317 16.3505 9.36612 16.1161C9.60054 15.8817 9.91849 15.75 10.25 15.75H15.25V10.75C15.25 10.4185 15.3817 10.1005 15.6161 9.86612C15.8505 9.6317 16.1685 9.5 16.5 9.5C16.8315 9.5 17.1495 9.6317 17.3839 9.86612C17.6183 10.1005 17.75 10.4185 17.75 10.75V15.75H22.75C23.0815 15.75 23.3995 15.8817 23.6339 16.1161C23.8683 16.3505 24 16.6685 24 17C24 17.3315 23.8683 17.6495 23.6339 17.8839C23.3995 18.1183 23.0815 18.25 22.75 18.25Z" fill="#FFAA47"/>
</svg>
