<svg width="186" height="42" viewBox="0 0 186 42" fill="none" xmlns="http://www.w3.org/2000/svg">
<g id="logoipsum-285" clip-path="url(#clip0_1_109)">
<path id="Vector" fill-rule="evenodd" clip-rule="evenodd" d="M59.0372 3.22879C59.0372 1.8394 60.1758 0.713074 61.5805 0.713074H66.0111C67.0108 0.713074 67.9797 1.05577 68.7527 1.68283L70.1005 2.77611L70.1342 2.80652C70.1653 2.79614 70.1964 2.786 70.2276 2.77611C72.6592 2.00572 75.6094 1.85921 78.6205 1.85921C81.6316 1.85921 84.5818 2.00572 87.0134 2.77611C87.0446 2.786 87.0757 2.79614 87.1068 2.80652L87.1405 2.77611L88.4883 1.68283C89.2613 1.05577 90.2302 0.713074 91.2299 0.713074H95.6605C97.0652 0.713074 98.2038 1.8394 98.2038 3.22879V4.78398C98.2038 5.98723 97.6914 7.13481 96.7922 7.94521L95.7049 8.9252C95.1741 9.40362 94.537 9.7518 93.845 9.94162L93.5878 10.0122C94.5953 12.3901 95.1519 14.9319 95.1519 16.9881C95.1519 25.2595 89.978 28.8318 85.4192 31.9794C81.8291 34.4582 78.6205 36.6735 78.6205 40.7131C78.6205 36.6735 75.4119 34.4582 71.8218 31.9794C67.263 28.8318 62.0891 25.2595 62.0891 16.9881C62.0891 14.9319 62.6457 12.3901 63.6532 10.0122L63.396 9.94162C62.704 9.7518 62.0669 9.40362 61.5361 8.9252L60.4488 7.94521C59.5496 7.13481 59.0372 5.98723 59.0372 4.78398V3.22879ZM81.9268 23.7503C81.9268 24.1455 81.7526 24.5244 81.4426 24.8039C81.1326 25.0833 80.7121 25.2403 80.2736 25.2403C79.8951 25.2403 79.5299 25.1232 79.2377 24.9114C79.7351 26.2284 81.008 27.4763 82.9441 25.4695C84.6533 23.6048 82.8681 19.6719 81.1289 17.3381C80.5492 16.5602 79.5975 16.1858 78.6205 16.1858C77.6435 16.1858 76.6918 16.5602 76.1121 17.3381C74.3729 19.6719 72.5877 23.6048 74.2969 25.4695C76.233 27.4763 77.5059 26.2284 78.0033 24.9114C77.7111 25.1232 77.3459 25.2403 76.9674 25.2403C76.5289 25.2403 76.1084 25.0833 75.7984 24.8039C75.4884 24.5244 75.3142 24.1455 75.3142 23.7503H81.9268ZM72.2898 12.1082H67.6844L71.3139 14.9829C72.1126 15.6154 73.28 15.4132 73.7742 14.5567C74.3982 13.4753 73.5694 12.1082 72.2898 12.1082ZM84.9512 12.1082H89.5566L85.9271 14.9829C85.1284 15.6154 83.961 15.4132 83.4668 14.5567C82.8428 13.4753 83.6716 12.1082 84.9512 12.1082Z" fill="black"/>
<path id="Vector_2" d="M103.69 29.0464H107.77V13.6564H103.69V29.0464ZM103.69 11.2564H107.77V7.59644H103.69V11.2564Z" fill="black"/>
<path id="Vector_3" d="M110.399 34.0864H114.479V27.3064H114.539C115.409 28.6264 116.819 29.4964 118.979 29.4964C122.939 29.4964 125.639 26.3465 125.639 21.3665C125.639 16.5665 123.029 13.2365 118.949 13.2365C116.849 13.2365 115.409 14.2264 114.419 15.5764H114.329V13.6564H110.399V34.0864ZM118.109 26.1065C115.679 26.1065 114.389 24.2764 114.389 21.4864C114.389 18.7264 115.409 16.5365 117.959 16.5365C120.479 16.5365 121.499 18.5764 121.499 21.4864C121.499 24.3964 120.179 26.1065 118.109 26.1065Z" fill="black"/>
<path id="Vector_4" d="M133.778 29.4964C137.618 29.4964 140.258 27.6365 140.258 24.5465C140.258 20.9465 137.408 20.2264 134.828 19.6865C132.638 19.2365 130.598 19.1165 130.598 17.7965C130.598 16.6865 131.648 16.0864 133.238 16.0864C134.978 16.0864 136.028 16.6864 136.208 18.3364H139.898C139.598 15.2464 137.348 13.2365 133.298 13.2365C129.788 13.2365 127.028 14.8264 127.028 18.1564C127.028 21.5164 129.728 22.2664 132.488 22.8064C134.588 23.2264 136.538 23.3764 136.538 24.8464C136.538 25.9264 135.518 26.6165 133.718 26.6165C131.888 26.6165 130.628 25.8364 130.358 24.0664H126.578C126.818 27.3364 129.308 29.4964 133.778 29.4964Z" fill="black"/>
<path id="Vector_5" d="M155.749 29.0464V13.6564H151.669V22.5364C151.669 24.5764 150.499 26.0164 148.579 26.0164C146.839 26.0164 146.029 25.0264 146.029 23.2264V13.6564H141.979V23.9164C141.979 27.2764 143.899 29.4664 147.319 29.4664C149.479 29.4664 150.679 28.6564 151.729 27.2464H151.819V29.0464H155.749Z" fill="black"/>
<path id="Vector_6" d="M158.388 29.0465H162.468V20.1065C162.468 18.0665 163.578 16.7464 165.228 16.7464C166.728 16.7464 167.598 17.6464 167.598 19.3864V29.0465H171.678V20.1065C171.678 18.0665 172.728 16.7464 174.438 16.7464C175.938 16.7464 176.808 17.6464 176.808 19.3864V29.0465H180.888V18.6965C180.888 15.3365 179.058 13.2365 175.818 13.2365C173.868 13.2365 172.248 14.2565 171.198 15.9365H171.138C170.388 14.3164 168.828 13.2365 166.878 13.2365C164.748 13.2365 163.248 14.3164 162.408 15.7264H162.318V13.6564H158.388V29.0465Z" fill="black"/>
<path id="Vector_7" d="M0.684082 29.0464H4.76408V7.59644H0.684082V29.0464Z" fill="black"/>
<path id="Vector_8" d="M14.7402 29.4964C19.5102 29.4964 22.7802 25.9565 22.7802 21.3665C22.7802 16.7765 19.5102 13.2365 14.7402 13.2365C9.9702 13.2365 6.7002 16.7765 6.7002 21.3665C6.7002 25.9565 9.9702 29.4964 14.7402 29.4964ZM14.7402 26.3765C12.2202 26.3765 10.8402 24.3665 10.8402 21.3665C10.8402 18.3665 12.2202 16.3264 14.7402 16.3264C17.2302 16.3264 18.6402 18.3665 18.6402 21.3665C18.6402 24.3665 17.2302 26.3765 14.7402 26.3765Z" fill="black"/>
<path id="Vector_9" d="M31.4568 34.2964C33.7368 34.2964 35.7168 33.7565 37.0068 32.5564C38.1468 31.5065 38.8368 30.0365 38.8368 27.8765V13.6564H34.9068V15.2765H34.8468C33.9168 13.9865 32.5068 13.2365 30.5868 13.2365C26.6868 13.2365 23.9268 16.1764 23.9268 20.7664C23.9268 25.4165 27.2868 28.1165 30.7068 28.1165C32.6568 28.1165 33.8268 27.3364 34.7268 26.3164H34.8168V27.9964C34.8168 30.0964 33.7068 31.2065 31.3968 31.2065C29.5068 31.2065 28.6368 30.4564 28.3068 29.4964H24.2568C24.6768 32.4964 27.2568 34.2964 31.4568 34.2964ZM31.3968 24.8464C29.2968 24.8464 27.9168 23.3165 27.9168 20.7065C27.9168 18.1265 29.2968 16.5064 31.3668 16.5064C33.8268 16.5064 35.0268 18.4264 35.0268 20.6764C35.0268 22.9564 33.9768 24.8464 31.3968 24.8464Z" fill="black"/>
<path id="Vector_10" d="M48.7539 29.4964C53.5239 29.4964 56.7939 25.9565 56.7939 21.3665C56.7939 16.7765 53.5239 13.2365 48.7539 13.2365C43.9839 13.2365 40.7139 16.7765 40.7139 21.3665C40.7139 25.9565 43.9839 29.4964 48.7539 29.4964ZM48.7539 26.3765C46.2339 26.3765 44.8539 24.3665 44.8539 21.3665C44.8539 18.3665 46.2339 16.3264 48.7539 16.3264C51.2439 16.3264 52.6539 18.3665 52.6539 21.3665C52.6539 24.3665 51.2439 26.3765 48.7539 26.3765Z" fill="black"/>
<path id="Vector_11" d="M180.704 10.2964C180.704 9.60603 181.263 9.04639 181.954 9.04639H184.454C185.144 9.04639 185.704 9.60603 185.704 10.2964C185.704 10.9867 185.144 11.5464 184.454 11.5464H181.954C181.263 11.5464 180.704 10.9867 180.704 10.2964Z" fill="black"/>
</g>
<defs>
<clipPath id="clip0_1_109">
<rect width="186" height="41" fill="white" transform="translate(0 0.500122)"/>
</clipPath>
</defs>
</svg>
