<svg width="219" height="40" viewBox="0 0 219 40" fill="none" xmlns="http://www.w3.org/2000/svg">
<g id="logoipsum-286 (2)" clip-path="url(#clip0_1_84)">
<path id="Vector" d="M122.605 29.5239H127.268V11.9353H122.605V29.5239ZM122.605 9.1925H127.268V5.00964H122.605V9.1925Z" fill="black"/>
<path id="Vector_2" d="M130.273 35.2839H134.936V27.5353H135.004C135.998 29.0439 137.61 30.0382 140.078 30.0382C144.604 30.0382 147.69 26.4382 147.69 20.7468C147.69 15.261 144.707 11.4553 140.044 11.4553C137.644 11.4553 135.998 12.5868 134.867 14.1296H134.764V11.9353H130.273V35.2839ZM139.084 26.1639C136.307 26.1639 134.833 24.0725 134.833 20.8839C134.833 17.7296 135.998 15.2268 138.913 15.2268C141.793 15.2268 142.958 17.5582 142.958 20.8839C142.958 24.2096 141.45 26.1639 139.084 26.1639Z" fill="black"/>
<path id="Vector_3" d="M156.991 30.0382C161.38 30.0382 164.397 27.9125 164.397 24.381C164.397 20.2668 161.14 19.4439 158.191 18.8268C155.688 18.3125 153.357 18.1753 153.357 16.6668C153.357 15.3982 154.557 14.7125 156.374 14.7125C158.363 14.7125 159.563 15.3982 159.768 17.2839H163.985C163.643 13.7525 161.071 11.4553 156.443 11.4553C152.431 11.4553 149.277 13.2725 149.277 17.0782C149.277 20.9182 152.363 21.7753 155.517 22.3925C157.917 22.8725 160.145 23.0439 160.145 24.7239C160.145 25.9582 158.98 26.7468 156.923 26.7468C154.831 26.7468 153.391 25.8553 153.083 23.8325H148.763C149.037 27.5696 151.883 30.0382 156.991 30.0382Z" fill="black"/>
<path id="Vector_4" d="M182.1 29.5239V11.9353H177.437V22.0839C177.437 24.4153 176.1 26.061 173.906 26.061C171.917 26.061 170.992 24.9296 170.992 22.8725V11.9353H166.363V23.661C166.363 27.501 168.557 30.0039 172.466 30.0039C174.935 30.0039 176.306 29.0782 177.506 27.4668H177.609V29.5239H182.1Z" fill="black"/>
<path id="Vector_5" d="M185.116 29.5239H189.779V19.3068C189.779 16.9753 191.048 15.4668 192.934 15.4668C194.648 15.4668 195.642 16.4953 195.642 18.4839V29.5239H200.305V19.3068C200.305 16.9753 201.505 15.4668 203.459 15.4668C205.174 15.4668 206.168 16.4953 206.168 18.4839V29.5239H210.831V17.6953C210.831 13.8553 208.739 11.4553 205.036 11.4553C202.808 11.4553 200.956 12.621 199.756 14.541H199.688C198.831 12.6896 197.048 11.4553 194.819 11.4553C192.385 11.4553 190.671 12.6896 189.711 14.301H189.608V11.9353H185.116V29.5239Z" fill="black"/>
<path id="Vector_6" d="M1.07416 29.5239H5.73701V5.00964H1.07416V29.5239Z" fill="black"/>
<path id="Vector_7" d="M17.1384 30.0382C22.5898 30.0382 26.3269 25.9925 26.3269 20.7468C26.3269 15.501 22.5898 11.4553 17.1384 11.4553C11.6869 11.4553 7.94977 15.501 7.94977 20.7468C7.94977 25.9925 11.6869 30.0382 17.1384 30.0382ZM17.1384 26.4725C14.2584 26.4725 12.6812 24.1753 12.6812 20.7468C12.6812 17.3182 14.2584 14.9868 17.1384 14.9868C19.9841 14.9868 21.5955 17.3182 21.5955 20.7468C21.5955 24.1753 19.9841 26.4725 17.1384 26.4725Z" fill="black"/>
<path id="Vector_8" d="M36.243 35.5239C38.8487 35.5239 41.1116 34.9068 42.5858 33.5353C43.8887 32.3353 44.6773 30.6553 44.6773 28.1868V11.9353H40.1859V13.7868H40.1173C39.0544 12.3125 37.443 11.4553 35.2487 11.4553C30.7916 11.4553 27.6373 14.8153 27.6373 20.061C27.6373 25.3753 31.4773 28.461 35.3859 28.461C37.6144 28.461 38.9516 27.5696 39.9801 26.4039H40.083V28.3239C40.083 30.7239 38.8144 31.9925 36.1744 31.9925C34.0144 31.9925 33.0201 31.1353 32.643 30.0382H28.0144C28.4944 33.4668 31.443 35.5239 36.243 35.5239ZM36.1744 24.7239C33.7744 24.7239 32.1973 22.9753 32.1973 19.9925C32.1973 17.0439 33.7744 15.1925 36.1401 15.1925C38.9516 15.1925 40.323 17.3868 40.323 19.9582C40.323 22.5639 39.123 24.7239 36.1744 24.7239Z" fill="black"/>
<path id="Vector_9" d="M56.0111 30.0382C61.4625 30.0382 65.1997 25.9925 65.1997 20.7468C65.1997 15.501 61.4625 11.4553 56.0111 11.4553C50.5597 11.4553 46.8225 15.501 46.8225 20.7468C46.8225 25.9925 50.5597 30.0382 56.0111 30.0382ZM56.0111 26.4725C53.1311 26.4725 51.554 24.1753 51.554 20.7468C51.554 17.3182 53.1311 14.9868 56.0111 14.9868C58.8568 14.9868 60.4683 17.3182 60.4683 20.7468C60.4683 24.1753 58.8568 26.4725 56.0111 26.4725Z" fill="black"/>
<path id="Vector_10" d="M212.525 9.04777C212.525 8.25879 213.165 7.6192 213.954 7.6192H216.811C217.6 7.6192 218.24 8.25879 218.24 9.04777C218.24 9.83675 217.6 10.4764 216.811 10.4764H213.954C213.165 10.4764 212.525 9.83675 212.525 9.04777Z" fill="black"/>
<path id="Vector_11" fill-rule="evenodd" clip-rule="evenodd" d="M93.4777 0.00012207C104.523 0.00012207 113.478 8.95443 113.478 20.0001C113.478 31.0458 104.523 40.0001 93.4777 40.0001C82.432 40.0001 73.4777 31.0458 73.4777 20.0001C73.4777 8.95443 82.432 0.00012207 93.4777 0.00012207ZM92.7548 1.49671C90.4731 1.81781 88.3005 3.6512 86.614 6.71752C86.1248 7.60695 85.6834 8.58958 85.2988 9.65056C87.592 9.07429 90.1111 8.73454 92.7548 8.68199V1.49671ZM83.6084 10.1309C84.0868 8.6297 84.6719 7.24852 85.3472 6.02077C86.1832 4.50071 87.1754 3.18807 88.2933 2.17989C82.2144 3.94535 77.4229 8.73691 75.6574 14.8158C76.6656 13.6979 77.9782 12.7057 79.4983 11.8697C80.7261 11.1944 82.1072 10.6092 83.6084 10.1309ZM83.1281 11.8212C82.5518 14.1144 82.2121 16.6335 82.1595 19.2772H74.9742C75.2953 16.9955 77.1287 14.8229 80.1951 13.1365C81.0845 12.6473 82.0671 12.2059 83.1281 11.8212ZM83.6056 19.2772C83.6653 16.3921 84.0807 13.6835 84.7679 11.2903C87.1611 10.6031 89.8697 10.1877 92.7548 10.128V13.2509C91.6785 16.0063 89.4833 18.2013 86.7278 19.2772H83.6056ZM82.1595 20.723H74.9742C75.2953 23.0047 77.1287 25.1772 80.1951 26.8637C81.0845 27.3529 82.0671 27.7943 83.1281 28.179C82.5518 25.8858 82.2121 23.3667 82.1595 20.723ZM84.7679 28.7099C84.0807 26.3167 83.6653 23.6081 83.6056 20.723H86.7278C89.4833 21.7989 91.6785 23.9939 92.7548 26.7493V29.8722C89.8697 29.8125 87.1611 29.3971 84.7679 28.7099ZM83.6084 29.8693C82.1072 29.391 80.7261 28.8058 79.4983 28.1305C77.9782 27.2945 76.6656 26.3023 75.6574 25.1844C77.4229 31.2633 82.2144 36.0549 88.2933 37.8203C87.1754 36.8121 86.1832 35.4995 85.3472 33.9794C84.6719 32.7517 84.0868 31.3705 83.6084 29.8693ZM92.7548 38.5035C90.4731 38.1824 88.3005 36.349 86.614 33.2827C86.1248 32.3933 85.6834 31.4106 85.2988 30.3497C87.592 30.9259 90.1111 31.2657 92.7548 31.3182V38.5035ZM98.662 37.8203C99.7799 36.8121 100.772 35.4995 101.608 33.9794C102.283 32.7517 102.869 31.3705 103.347 29.8693C104.848 29.391 106.229 28.8058 107.457 28.1305C108.977 27.2945 110.29 26.3023 111.298 25.1844C109.532 31.2633 104.741 36.0549 98.662 37.8203ZM101.657 30.3497C101.272 31.4106 100.83 32.3933 100.341 33.2827C98.6548 36.349 96.4822 38.1824 94.2005 38.5035V31.3182C96.8442 31.2657 99.3633 30.9259 101.657 30.3497ZM103.827 28.179C104.888 27.7943 105.871 27.3529 106.76 26.8637C109.827 25.1773 111.66 23.0047 111.981 20.723H104.796C104.743 23.3667 104.403 25.8858 103.827 28.179ZM103.35 20.723C103.29 23.6081 102.875 26.3167 102.187 28.7099C99.7942 29.3971 97.0856 29.8125 94.2005 29.8722V26.7516C95.2765 23.9952 97.4722 21.7992 100.228 20.723H103.35ZM104.796 19.2772H111.981C111.66 16.9955 109.827 14.8229 106.76 13.1365C105.871 12.6473 104.888 12.2059 103.827 11.8212C104.403 14.1144 104.743 16.6335 104.796 19.2772ZM102.187 11.2903C102.875 13.6835 103.29 16.3921 103.35 19.2772H100.228C97.4722 18.201 95.2765 16.005 94.2005 13.2486V10.128C97.0856 10.1877 99.7942 10.6031 102.187 11.2903ZM103.347 10.1309C104.848 10.6092 106.229 11.1944 107.457 11.8697C108.977 12.7057 110.29 13.6979 111.298 14.8158C109.532 8.73691 104.741 3.94535 98.662 2.17989C99.7799 3.18807 100.772 4.50071 101.608 6.02077C102.283 7.24852 102.869 8.6297 103.347 10.1309ZM94.2005 1.49671C96.4822 1.81781 98.6548 3.6512 100.341 6.71752C100.83 7.60696 101.272 8.58958 101.657 9.65056C99.3633 9.07429 96.8442 8.73454 94.2005 8.68199V1.49671Z" fill="black"/>
</g>
<defs>
<clipPath id="clip0_1_84">
<rect width="218" height="40" fill="white" transform="translate(0.25 0.00012207)"/>
</clipPath>
</defs>
</svg>
