<svg width="70" height="44" viewBox="0 0 70 44" fill="none" xmlns="http://www.w3.org/2000/svg">
<g id="logoipsum-284" clip-path="url(#clip0_1_69)">
<path id="Vector" d="M65.5268 5.40865C65.5268 5.45995 65.5268 5.52408 65.5137 5.56256C65.4481 6.06277 65.4481 6.56298 65.4874 7.07602C65.5137 7.20428 65.5399 7.33254 65.6449 7.43515C65.8154 7.62753 66.0777 7.58906 66.1827 7.35819C66.2352 7.24276 66.2352 7.12732 66.2089 7.01189C66.0777 6.5245 66.0515 6.01147 66.0384 5.51125C66.0384 5.4856 66.0384 5.44712 66.0384 5.40865C66.1827 5.39582 66.3139 5.38299 66.4319 5.38299C66.5238 5.37017 66.6025 5.35734 66.6681 5.31886C66.8648 5.21626 66.8648 4.99822 66.6549 4.89561C66.5762 4.85713 66.4713 4.8443 66.3795 4.8443C66.0515 4.85713 65.7236 4.85713 65.3956 4.85713C65.2776 4.85713 65.1595 4.86996 65.0414 4.88278C64.9758 4.89561 64.8971 4.89561 64.8447 4.93409C64.7528 4.97256 64.7004 5.03669 64.7004 5.12647C64.7135 5.21626 64.7528 5.26756 64.8447 5.30604C64.8971 5.34452 64.9627 5.35734 65.0283 5.35734C65.1857 5.37017 65.3563 5.39582 65.5268 5.40865ZM69.1342 5.99864C69.1342 6.01147 69.1473 6.02429 69.1473 6.02429C69.1998 6.37059 69.2523 6.70407 69.2916 7.03754C69.3048 7.15297 69.3179 7.25558 69.3966 7.34536C69.5671 7.5634 69.8295 7.53775 69.9475 7.30689C70 7.19145 70.0131 7.07602 69.9869 6.94776C69.9082 6.56298 69.8688 6.1782 69.7901 5.80625C69.7376 5.57538 69.6721 5.35734 69.6065 5.15213C69.5671 5.02387 69.4753 4.93408 69.3179 4.92126C69.1605 4.89561 69.0424 4.97256 68.9768 5.088C68.8981 5.1906 68.8325 5.29321 68.78 5.40865C68.6882 5.61386 68.6095 5.81908 68.5046 6.01147C68.4914 6.06277 68.4783 6.10125 68.4521 6.13972C68.439 6.11407 68.4259 6.10125 68.4259 6.10125C68.2553 5.7806 68.0979 5.45995 67.9274 5.15213C67.9011 5.12647 67.888 5.10082 67.8749 5.07517C67.7962 4.95974 67.7044 4.89561 67.5601 4.89561C67.4289 4.90843 67.3239 4.98539 67.2584 5.10082C67.2321 5.15213 67.2321 5.1906 67.219 5.24191C67.1665 5.65234 67.1009 6.06277 67.0485 6.4732C67.0222 6.70407 67.0091 6.93493 67.0091 7.1658C66.996 7.2171 67.0091 7.28123 67.0353 7.33254C67.0616 7.43514 67.1403 7.49928 67.2452 7.5121C67.3764 7.52493 67.4682 7.48645 67.5076 7.38384C67.5469 7.30689 67.5601 7.24276 67.5732 7.17863C67.6257 6.94776 67.665 6.72972 67.7044 6.51168C67.7306 6.38342 67.7437 6.28081 67.7831 6.13972C67.8093 6.19103 67.8355 6.22951 67.8618 6.26798C67.9798 6.4219 68.0979 6.57581 68.2422 6.70407C68.3865 6.80667 68.5046 6.79385 68.6226 6.67841C68.6489 6.65276 68.662 6.63994 68.6882 6.61428C68.8063 6.43472 68.9506 6.25516 69.0686 6.07559C69.0949 6.04994 69.108 6.02429 69.1342 5.99864Z" fill="black"/>
<path id="Vector_2" d="M38.9087 5.6606C38.8175 5.90435 38.8001 6.07996 38.8422 6.22592C38.8887 6.4244 39.0094 6.48938 39.1732 6.4389C40.714 6.06637 44.0927 7.12377 45.3436 7.41848C45.6386 7.48036 45.8786 7.10801 45.6773 6.77417C45.3835 6.45087 42.0063 5.0667 40.7177 4.99123C40.2126 4.96332 39.3096 4.83668 38.9087 5.6606Z" fill="black"/>
<path id="Vector_3" d="M52.1133 1.17995C52.2775 1.27262 52.3693 1.36102 52.4146 1.45979C52.4821 1.58935 52.4465 1.67899 52.3331 1.72473C51.3146 2.21075 49.9593 4.30316 49.4122 5.02481C49.2796 5.19082 48.9737 5.09435 48.9275 4.82135C48.937 4.51267 50.1384 2.24194 50.8089 1.62347C51.0724 1.382 51.5077 0.908209 52.1133 1.17995Z" fill="black"/>
<path id="Vector_4" d="M44.0023 0.149918C44.1996 0.00454095 44.4046 -0.0464035 44.5093 0.0480733C46.046 1.33302 46.8609 3.36785 47.3655 5.23069C47.3845 5.27409 47.3857 5.33637 47.3705 5.40134C47.3642 5.45687 47.3227 5.51553 47.2568 5.56092C47.1864 5.61103 47.1258 5.62629 47.0973 5.58311C46.4238 4.68744 42.5771 1.20254 44.0023 0.149918Z" fill="black"/>
<path id="Vector_5" d="M11.461 22.4277C11.8293 22.1596 12.2297 21.9364 12.6534 21.7632C13.0967 21.6393 13.5692 21.6598 13.9995 21.8218C14.4297 21.9838 14.7944 22.2783 15.0382 22.6609C15.2563 23.0425 15.3416 23.4831 15.2814 23.9163C15.2212 24.3494 15.0187 24.7517 14.7043 25.0626C14.4606 25.3146 14.1839 25.5341 13.8816 25.7155C12.5342 26.5666 11.1748 27.371 9.81547 28.2221C9.53732 28.4351 9.24225 28.6262 8.93308 28.7934C8.46281 29.0227 7.92537 29.0841 7.41368 28.967C6.902 28.85 6.44826 28.5617 6.13092 28.1522C5.89369 27.8622 5.69348 27.5451 5.53471 27.2078C4.24691 24.5613 2.91142 21.9264 1.67131 19.2332C1.09895 18.0674 0.633913 16.7266 0.180798 15.4325C-0.0152406 15.0565 -0.0535225 14.6206 0.0741037 14.2174C0.20173 13.8142 0.485195 13.4756 0.864201 13.2736C1.24321 13.0716 1.68785 13.0222 2.10357 13.1358C2.51929 13.2494 2.87329 13.5171 3.09027 13.8819C3.75722 14.7485 4.34761 15.669 4.85504 16.6334C6.14284 18.9651 7.37103 21.2968 8.61113 23.5586C8.68334 23.6836 8.76296 23.8042 8.84961 23.92C9.783 23.5363 10.6609 23.0346 11.461 22.4277Z" fill="black"/>
<path id="Vector_6" d="M24.7761 21.6143C21.8309 24.9836 16.8943 24.1325 14.4141 19.7955C12.6493 16.7176 12.3393 11.6344 16.1789 8.42832C16.9988 7.75709 17.9792 7.29984 19.0287 7.09922C20.3155 6.91885 21.6277 7.14081 22.7777 7.73339C23.9277 8.32597 24.8567 9.25882 25.432 10.3986C27.5306 14.1294 27.2325 18.8861 24.7761 21.6143ZM23.5837 13.7563C23.2708 12.8395 22.6431 12.0568 21.807 11.5411C21.3339 11.2114 20.759 11.0511 20.1792 11.0872C19.5993 11.1233 19.0499 11.3536 18.6233 11.7393C16.9182 13.22 16.5604 16.7293 17.8005 18.8162C17.9586 19.1565 18.1907 19.4589 18.4808 19.7023C18.7709 19.9457 19.1119 20.1242 19.4799 20.2252C19.8479 20.3263 20.234 20.3475 20.6113 20.2874C20.9886 20.2272 21.3478 20.0872 21.664 19.8771C22.5883 19.1764 23.2664 18.2116 23.604 17.1168C23.9417 16.0219 23.9221 14.8514 23.548 13.768L23.5837 13.7563Z" fill="black"/>
<path id="Vector_7" d="M36.7955 15.2253C36.494 15.2887 36.1825 15.2925 35.8794 15.2364C35.5764 15.1803 35.2878 15.0656 35.0308 14.8989C34.8059 14.7731 34.6123 14.6002 34.4639 14.3925C34.3156 14.1848 34.2162 13.9476 34.1729 13.6978C34.1295 13.4481 34.1434 13.1921 34.2133 12.9482C34.2833 12.7043 34.4078 12.4786 34.5777 12.2873C34.8737 11.9029 35.2939 11.6277 35.7701 11.5062C37.0134 11.1534 38.2933 10.9383 39.5858 10.865C39.8698 10.8327 40.1575 10.8562 40.432 10.9341C40.7066 11.0121 40.9624 11.1428 41.1846 11.3188C41.4067 11.4947 41.5907 11.7123 41.7257 11.9587C41.8606 12.2051 41.9439 12.4754 41.9706 12.7537C42.3432 14.1207 42.384 15.554 42.0898 16.9392C41.0167 21.4161 37.3202 22.955 33.1706 21.521C32.0058 21.1376 30.9845 20.4232 30.2373 19.4691C29.2407 18.3201 28.5341 16.9584 28.1744 15.4935C27.883 14.189 27.9149 12.8354 28.2676 11.5455C28.6202 10.2556 29.2833 9.06689 30.2015 8.07859C31.0729 7.00442 32.2039 6.15905 33.4926 5.6186C34.3069 5.17975 35.2598 5.05497 36.1636 5.26884C36.3686 5.32432 36.5547 5.43242 36.7026 5.58193C36.8505 5.73145 36.9548 5.91692 37.0047 6.11913C37.0546 6.32133 37.0482 6.5329 36.9863 6.7319C36.9243 6.93089 36.8091 7.11006 36.6525 7.25082C36.3547 7.51437 36.0312 7.74867 35.6866 7.95034C34.6265 8.61041 33.704 9.46096 32.9679 10.4569C32.4854 11.1014 32.1531 11.8415 31.9945 12.625C31.8358 13.4085 31.8547 14.2165 32.0498 14.9922C32.3202 16.0498 32.9203 16.9991 33.7668 17.7086C36.3901 20.0404 39.8004 17.7902 39.2042 14.6074C38.3338 14.8173 37.5706 15.0388 36.7955 15.2253Z" fill="black"/>
<path id="Vector_8" d="M52.8217 21.8008C48.9464 24.1326 44.5345 21.8008 43.5686 16.9042C42.8651 13.4066 44.2006 8.50991 48.8749 6.64452C49.8694 6.25617 50.9481 6.11982 52.0109 6.24812C53.2878 6.47667 54.4592 7.0913 55.3598 8.00537C56.2604 8.91943 56.845 10.0868 57.0309 11.343C57.8179 15.5051 56.0293 19.9471 52.8217 21.8008ZM54.1692 13.9545C54.168 12.986 53.8176 12.0488 53.1795 11.308C52.8384 10.8498 52.3453 10.5215 51.7843 10.379C51.2232 10.2366 50.6291 10.2888 50.103 10.5269C48.0044 11.4129 46.5258 14.6307 47.0624 16.9975C47.1034 17.3689 47.2268 17.7271 47.4241 18.047C47.6214 18.3669 47.8878 18.6408 48.2047 18.8496C48.5215 19.0583 48.8812 19.1969 49.2585 19.2556C49.6359 19.3142 50.0218 19.2916 50.3892 19.1893C51.4985 18.8104 52.459 18.1023 53.1366 17.1638C53.8143 16.2253 54.1753 15.1033 54.1692 13.9545Z" fill="black"/>
<path id="Vector_9" d="M60.9499 22.7802C60.8914 23.2069 60.662 23.5934 60.312 23.8547C59.962 24.1159 59.5202 24.2306 59.0838 24.1734C58.6474 24.1162 58.2521 23.8918 57.9849 23.5496C57.7176 23.2075 57.6004 22.7755 57.6589 22.3488C57.7174 21.9221 57.9469 21.5356 58.2968 21.2743C58.6468 21.013 59.0886 20.8984 59.525 20.9556C59.9614 21.0128 60.3567 21.2371 60.624 21.5793C60.8912 21.9215 61.0085 22.3535 60.9499 22.7802ZM59.9125 7.05259C60.1393 6.71394 60.472 6.45605 60.861 6.31738C61.2499 6.17871 61.6743 6.16669 62.0708 6.28312C62.4739 6.38173 62.83 6.61274 63.0797 6.93747C63.3293 7.26221 63.4572 7.66094 63.4421 8.0669C63.3895 8.71807 63.2899 9.3648 63.144 10.0022C62.7505 12.1591 62.3689 14.3159 61.9516 16.4495C61.7608 17.3006 61.5104 18.1167 61.2361 18.9794C61.1407 19.2491 60.9813 19.4928 60.7711 19.6906C60.6404 19.8394 60.4735 19.9535 60.2857 20.0224C60.0979 20.0914 59.8954 20.1129 59.6969 20.085C59.4984 20.0571 59.3102 19.9807 59.1499 19.8629C58.9896 19.745 58.8623 19.5895 58.7798 19.4108C58.638 19.0902 58.561 18.7457 58.5532 18.3965C58.5532 16.9508 58.5532 15.4935 58.6486 14.0361C58.8107 11.9563 59.1295 9.891 59.6025 7.85704C59.6582 7.58454 59.7631 7.32395 59.9125 7.08757V7.05259Z" fill="black"/>
<path id="Vector_10" fill-rule="evenodd" clip-rule="evenodd" d="M6.42311 32.1489C6.28232 32.4562 6.24371 32.7988 6.31251 33.1285C6.35828 33.5631 6.45881 33.9906 6.61181 34.4012C6.80283 34.904 7.01658 35.4012 7.28014 36.014C7.34075 36.155 7.40409 36.3022 7.47037 36.4571C7.82579 37.2873 8.27175 38.3483 8.8666 39.8838C9.03497 40.32 9.18448 40.7598 9.33504 41.2026C9.39586 41.3815 9.4569 41.561 9.51938 41.7409C9.74334 42.3805 10.1287 42.9551 10.6395 43.4105C10.8564 43.6608 11.1441 43.8432 11.4667 43.9344C11.7956 44.0274 12.1454 44.0215 12.4708 43.9175C12.7962 43.8134 13.082 43.616 13.2911 43.3509C13.4961 43.091 13.618 42.7778 13.6417 42.4506C13.7747 41.8132 13.7293 41.1523 13.5101 40.5378C13.1622 39.5175 12.7659 38.4957 12.3089 37.4963L12.3068 37.4919C11.555 35.9283 10.7908 34.3755 9.99044 32.8221L9.98445 32.8112C9.75015 32.4065 9.44566 32.0447 9.08466 31.7421C8.8503 31.472 8.52703 31.2898 8.17003 31.227C7.80542 31.1629 7.42938 31.2275 7.10904 31.4094C6.806 31.5786 6.56578 31.8375 6.42311 32.1489Z" fill="black"/>
<path id="Vector_11" fill-rule="evenodd" clip-rule="evenodd" d="M17.9057 28.2987C16.7269 28.0002 15.4958 27.9567 14.2982 28.1713C13.3706 28.2606 12.4583 28.4698 11.8248 28.8842C11.5026 29.0951 11.2421 29.3659 11.0972 29.7101C10.9515 30.0562 10.9329 30.452 11.0523 30.893C11.2703 31.7008 11.5534 32.4862 11.8355 33.2691L11.8812 33.3959L11.8823 33.3987C12.7317 35.6731 13.5892 37.9398 14.4545 40.1987C14.5554 40.5547 14.6981 40.8981 14.8797 41.222L14.8831 41.228C15.123 41.6304 15.4307 41.9903 15.7932 42.2926C15.9745 42.4588 16.1987 42.5738 16.4418 42.6252C16.6873 42.677 16.9426 42.662 17.1799 42.5816C17.4173 42.5013 17.6275 42.3588 17.7877 42.1696C17.9453 41.9835 18.0485 41.7593 18.0864 41.5207C18.2428 40.8725 18.1927 40.193 17.9427 39.5734C17.8647 39.3649 17.8035 39.1518 17.739 38.9275C17.7175 38.8527 17.6957 38.7766 17.6727 38.6991C19.6534 37.9421 21.7609 36.9242 22.502 34.5562C22.7922 33.7379 22.8164 32.8518 22.5712 32.0194C22.3258 31.1861 21.8223 30.4475 21.1301 29.9053C20.188 29.1463 19.0875 28.5979 17.9057 28.2987ZM14.6382 31.2032C14.6772 31.1922 14.7165 31.182 14.7559 31.1725C16.0454 30.9743 17.3647 31.2384 18.4709 31.916C18.9584 32.2475 19.1581 32.6158 19.1924 32.9702C19.2278 33.3351 19.0921 33.7305 18.8195 34.1106C18.3044 34.8286 17.3644 35.4033 16.5153 35.5104C15.8963 34.1166 15.2677 32.6664 14.6382 31.2032Z" fill="black"/>
<path id="Vector_12" d="M25.7646 25.7474C27.1684 25.1135 28.9073 25.004 30.268 25.4497C30.6107 25.5473 30.908 25.7584 31.1091 26.0469C31.3089 26.3336 31.4011 26.6791 31.3703 27.0245C31.3683 27.2487 31.312 27.4693 31.2061 27.6683C31.0983 27.8709 30.9422 28.0451 30.751 28.1763C30.5598 28.3074 30.3391 28.3917 30.1076 28.4218C29.876 28.452 29.6405 28.4272 29.4208 28.3495L29.4041 28.3436L29.3884 28.3355C29.276 28.278 29.1566 28.2347 29.0331 28.2065L29.0253 28.2048C28.0681 27.9562 27.1652 28.3681 26.8354 28.8742C26.6781 29.1155 26.6586 29.3591 26.7896 29.5807C26.9299 29.818 27.274 30.0843 27.9703 30.2741C28.1618 30.3255 28.3581 30.3751 28.5572 30.4255C29.1078 30.5649 29.68 30.7097 30.2333 30.9104L30.2354 30.9112C32.788 31.8608 33.7385 33.8275 33.4131 35.6773C33.0912 37.5066 31.5287 39.1714 29.179 39.5641C28.324 39.7494 27.4342 39.7133 26.5977 39.4594C25.7591 39.2047 25.0032 38.74 24.4051 38.1112L24.3895 38.0948C24.2007 37.8579 24.0737 37.5796 24.0174 37.2843C23.9656 37.0178 23.9929 36.7424 24.0959 36.4905C24.1983 36.2401 24.3715 36.0234 24.595 35.8655C24.8311 35.6865 25.1157 35.5791 25.4136 35.5567C25.7105 35.5344 26.0076 35.5975 26.2683 35.7381C26.5287 35.8611 26.7709 36.018 26.9883 36.2046L26.9924 36.208C27.377 36.5519 27.8423 36.6415 28.2885 36.5585C28.7412 36.4743 29.1669 36.2124 29.4407 35.8649C29.7127 35.5196 29.8219 35.1094 29.6923 34.7112C29.5619 34.3101 29.1698 33.8607 28.3083 33.485C28.0831 33.3915 27.8496 33.3161 27.6067 33.2427C27.5412 33.2229 27.4746 33.2032 27.4072 33.1832C27.2276 33.1299 27.0428 33.075 26.8616 33.0145C26.7368 32.9729 26.613 32.9335 26.4904 32.8944C26.1553 32.7877 25.8286 32.6837 25.5142 32.5442C24.8299 32.3164 24.2387 31.879 23.8286 31.2967C23.4168 30.7121 23.2096 30.013 23.2378 29.3038C23.24 27.5755 24.3533 26.3848 25.7646 25.7474Z" fill="black"/>
<path id="Vector_13" d="M43.5619 25.5633C43.2897 25.4333 42.9887 25.3716 42.6861 25.3837C42.3834 25.3959 42.0886 25.4815 41.8283 25.633C41.5696 25.7834 41.353 25.994 41.1978 26.2461C41.0555 26.4584 40.957 26.6958 40.9079 26.9451C40.8588 27.1942 40.86 27.4502 40.9113 27.6987C40.962 28.0181 41.0182 28.3287 41.0737 28.635C41.1656 29.1419 41.255 29.6374 41.314 30.1426L41.3162 30.1554C41.4505 30.9477 41.5208 31.749 41.5271 32.552L41.5277 32.5634C41.5736 33.4306 41.2714 34.2809 40.6859 34.9339L40.6766 34.9455C40.4861 35.1842 40.2314 35.3664 39.9409 35.4717C39.6505 35.577 39.3359 35.6012 39.0322 35.5416C38.7285 35.482 38.4478 35.341 38.2214 35.1343C37.995 34.9276 37.8317 34.6626 37.7502 34.3705C37.5762 33.7548 37.4755 33.1215 37.4499 32.4833L37.7471 27.857C37.7515 27.7966 37.7565 27.7346 37.7616 27.672C37.7729 27.5315 37.7845 27.3884 37.7893 27.2549C37.7963 27.0585 37.7903 26.8565 37.7435 26.6653C37.6956 26.4699 37.6045 26.284 37.4429 26.1257C37.2829 25.969 37.0669 25.8534 36.7951 25.7747C36.3036 25.6356 35.888 25.64 35.5417 25.7837C35.1952 25.9274 34.9578 26.1942 34.7898 26.5024C34.6231 26.808 34.516 27.1698 34.435 27.5322C34.3749 27.8011 34.3266 28.0834 34.2807 28.3521C34.2648 28.4447 34.2493 28.5356 34.2336 28.6239L34.2332 28.6265C33.9876 30.1001 33.9145 31.5963 34.0153 33.0861C34.0341 33.8912 34.2058 34.6859 34.5218 35.4296C34.8783 36.3892 35.524 37.2206 36.3737 37.8141C37.2252 38.4088 38.2413 38.7365 39.2875 38.7538C40.3337 38.7711 41.3606 38.4772 42.2322 37.9111C43.1024 37.3458 43.7768 36.5356 44.1662 35.5877C44.7109 34.3802 44.9667 33.067 44.9139 31.7482C44.8819 30.7854 44.8283 29.8152 44.775 28.8499C44.7488 28.3764 44.7227 27.9039 44.6993 27.4343C44.6875 26.9634 44.5287 26.5073 44.2441 26.1272C44.068 25.8869 43.8336 25.6931 43.5619 25.5633Z" fill="black"/>
<path id="Vector_14" d="M53.1961 32.8175C53.1685 32.8518 53.1394 32.8873 53.109 32.9242C52.8876 31.6754 52.6824 30.427 52.4769 29.1767C52.4032 28.7281 52.3291 28.2776 52.2546 27.8284L52.2462 27.7783L52.219 27.735C52.1677 27.6535 52.1626 27.5736 52.1626 27.4032V27.3835L52.1595 27.364C52.1039 27.0121 51.9411 26.6846 51.6924 26.4244C51.4444 26.1649 51.1223 25.9843 50.768 25.9059C50.4143 25.8206 50.0426 25.8394 49.6997 25.96C49.3577 26.0803 49.0596 26.2965 48.8426 26.5815C48.6622 26.8002 48.5143 27.0428 48.4035 27.302C48.152 27.8604 47.8983 28.4202 47.6439 28.9815L47.6395 28.9912C47.0044 30.3925 46.365 31.8032 45.7442 33.225L45.7423 33.2296C45.3612 34.1515 45.0466 35.1229 44.7331 36.0913C44.6705 36.2846 44.6079 36.4778 44.5448 36.6705C44.4316 36.9761 44.3821 37.3007 44.3991 37.6252C44.3785 37.9157 44.4496 38.2055 44.603 38.4554C44.7594 38.7104 44.9937 38.911 45.2728 39.0291C45.5686 39.1559 45.8993 39.1828 46.2126 39.1056C46.5252 39.0285 46.8028 38.8521 47.0017 38.6041C47.2557 38.2986 47.4742 37.9654 47.6524 37.6124C48.1783 36.5606 48.6809 35.496 49.1812 34.436C49.3748 34.026 49.5629 33.6588 49.7769 33.2589C49.7916 33.3082 49.8066 33.3563 49.8221 33.4045C50.0464 34.37 50.425 35.2948 50.9439 36.1449C51.0421 36.3251 51.1789 36.4825 51.3449 36.6064C51.5129 36.7318 51.7068 36.8198 51.9131 36.8645C52.1194 36.9092 52.3332 36.9094 52.5396 36.8651C52.7457 36.8209 52.9402 36.7328 53.1083 36.608L53.441 36.3645L56.0233 34.2378L55.8706 35.1892C55.661 36.4972 55.453 37.7942 55.232 39.0915C55.0874 39.6665 55.0876 40.2671 55.2326 40.8419C55.2954 41.1654 55.4554 41.4632 55.6922 41.6974C55.931 41.9335 56.2368 42.0939 56.57 42.1579C56.9032 42.2218 57.2484 42.1864 57.5607 42.0561C57.8685 41.9278 58.1303 41.7132 58.3133 41.4397C58.7391 40.9232 59.0041 40.2979 59.0769 39.6382C59.1865 38.7066 59.3103 37.7623 59.4342 36.8183C59.5769 35.7302 59.7196 34.6424 59.8401 33.5754L59.8405 33.5722C59.9565 32.4043 60.0126 31.2316 60.0087 30.0582C60.0341 29.6874 59.9397 29.318 59.7385 29.0023C59.5366 28.6855 59.2376 28.4392 58.8842 28.2983C58.5166 28.1349 58.1051 28.0912 57.7102 28.1738C57.3179 28.2558 56.9628 28.458 56.6964 28.7509C56.2201 29.1816 55.7733 29.6425 55.3588 30.1306L55.356 30.1339C54.9035 30.6852 54.4541 31.2473 54.0076 31.8058C53.7361 32.1453 53.4654 32.484 53.1961 32.8175Z" fill="black"/>
</g>
<defs>
<clipPath id="clip0_1_69">
<rect width="70" height="44" fill="white"/>
</clipPath>
</defs>
</svg>
