<svg width="203" height="40" viewBox="0 0 203 40" fill="none" xmlns="http://www.w3.org/2000/svg">
<g id="logoipsum-297" clip-path="url(#clip0_1_96)">
<path id="Vector" fill-rule="evenodd" clip-rule="evenodd" d="M26.3057 11.6854C24.6612 10.5866 22.7278 10.0001 20.75 10.0001V0.00012207C24.7056 0.00012207 28.5724 1.1731 31.8614 3.37073C35.1504 5.56835 37.7138 8.69193 39.2276 12.3464C40.7413 16.0009 41.1374 20.0223 40.3657 23.9019C39.594 27.7815 37.6892 31.3452 34.8921 34.1422C32.0951 36.9393 28.5314 38.8441 24.6518 39.6158C20.7722 40.3875 16.7508 39.9914 13.0963 38.4777C9.4418 36.9639 6.31823 34.4005 4.12061 31.1115C1.92298 27.8225 0.75 23.9557 0.75 20.0001H10.75C10.75 21.9779 11.3365 23.9113 12.4353 25.5558C13.5341 27.2003 15.0959 28.482 16.9232 29.2389C18.7504 29.9958 20.7611 30.1938 22.7009 29.8079C24.6407 29.4221 26.4225 28.4697 27.8211 27.0712C29.2196 25.6726 30.172 23.8908 30.5578 21.951C30.9437 20.0112 30.7457 18.0005 29.9888 16.1733C29.2319 14.346 27.9502 12.7842 26.3057 11.6854Z" fill="black"/>
<path id="Vector_2" fill-rule="evenodd" clip-rule="evenodd" d="M10.75 0.000127355C10.75 1.31335 10.4913 2.61371 9.98879 3.82697C9.48624 5.04022 8.74965 6.14261 7.82106 7.0712C6.89248 7.99979 5.79009 8.73638 4.57683 9.23893C3.36357 9.74147 2.06321 10.0001 0.75 10.0001L0.75 20.0001C3.37643 20.0001 5.97715 19.4828 8.40367 18.4777C10.8302 17.4726 13.035 15.9994 14.8921 14.1422C16.7493 12.2851 18.2225 10.0803 19.2276 7.6538C20.2327 5.22728 20.75 2.62656 20.75 0.00012207L10.75 0.000127355Z" fill="black"/>
<path id="Vector_3" d="M126.369 14.4526H121.517V29.8649H126.369V14.4526Z" fill="black"/>
<path id="Vector_4" d="M122.057 11.5667C122.564 12.0741 123.198 12.3278 123.959 12.3278C124.72 12.3278 125.344 12.0741 125.83 11.5667C126.317 11.0382 126.56 10.4039 126.56 9.66397C126.56 8.90289 126.317 8.26861 125.83 7.76123C125.344 7.25381 124.72 7.00012 123.959 7.00012C123.198 7.00012 122.564 7.25381 122.057 7.76123C121.57 8.26861 121.327 8.90289 121.327 9.66397C121.327 10.4039 121.57 11.0382 122.057 11.5667Z" fill="black"/>
<path id="Vector_5" d="M51.9062 29.865V7.47583H56.8851V25.4887H66.8112V29.865H51.9062Z" fill="black"/>
<path id="Vector_6" fill-rule="evenodd" clip-rule="evenodd" d="M75.7774 30.2137C74.1918 30.2137 72.7542 29.8649 71.4645 29.1672C70.196 28.4484 69.1918 27.4759 68.4518 26.2496C67.7119 25.0234 67.3419 23.6492 67.3419 22.127C67.3419 20.6048 67.7119 19.2412 68.4518 18.0361C69.1918 16.831 70.196 15.8796 71.4645 15.182C72.733 14.4631 74.1707 14.1037 75.7774 14.1037C77.3842 14.1037 78.8218 14.4526 80.0903 15.1502C81.3588 15.8479 82.3631 16.8099 83.103 18.0361C83.843 19.2412 84.213 20.6048 84.213 22.127C84.213 23.6492 83.843 25.0234 83.103 26.2496C82.3631 27.4759 81.3588 28.4484 80.0903 29.1672C78.8218 29.8649 77.3842 30.2137 75.7774 30.2137ZM75.7774 25.8057C76.4751 25.8057 77.0882 25.6577 77.6168 25.3617C78.1453 25.0446 78.547 24.6112 78.8218 24.0615C79.1178 23.4907 79.2658 22.8458 79.2658 22.127C79.2658 21.4082 79.1178 20.7845 78.8218 20.256C78.5258 19.7063 78.1136 19.2835 77.585 18.9875C77.0776 18.6703 76.4751 18.5118 75.7774 18.5118C75.1009 18.5118 74.4984 18.6703 73.9698 18.9875C73.4413 19.2835 73.029 19.7063 72.733 20.256C72.437 20.8057 72.2891 21.4399 72.2891 22.1587C72.2891 22.8564 72.437 23.4907 72.733 24.0615C73.029 24.6112 73.4413 25.0446 73.9698 25.3617C74.4984 25.6577 75.1009 25.8057 75.7774 25.8057Z" fill="black"/>
<path id="Vector_7" fill-rule="evenodd" clip-rule="evenodd" d="M88.0557 35.8903C89.3453 36.4822 90.8358 36.7782 92.5272 36.7782C94.1762 36.7782 95.6456 36.4505 96.9352 35.7951C98.2249 35.1397 99.2396 34.2307 99.9796 33.0679C100.72 31.9051 101.09 30.5309 101.09 28.9452V14.4526H96.3326V15.4881C95.9788 15.1903 95.577 14.9403 95.1276 14.738C94.303 14.3363 93.3622 14.1354 92.3052 14.1354C90.8887 14.1354 89.6307 14.4737 88.5314 15.1502C87.4319 15.8056 86.5652 16.7147 85.9309 17.8775C85.2966 19.0192 84.9796 20.3088 84.9796 21.7465C84.9796 23.163 85.2966 24.4526 85.9309 25.6154C86.5652 26.7782 87.4319 27.6979 88.5314 28.3744C89.6307 29.0509 90.8887 29.3892 92.3052 29.3892C93.3411 29.3892 94.2819 29.1884 95.1276 28.7867C95.5372 28.5921 95.9072 28.3628 96.2375 28.0987V29.0721C96.2375 30.1503 95.8887 30.9854 95.191 31.5774C94.5145 32.1694 93.5737 32.4653 92.3686 32.4653C91.3961 32.4653 90.561 32.2962 89.8633 31.9579C89.1868 31.6197 88.5736 31.1228 88.0239 30.4674L85.043 33.4484C85.7829 34.5055 86.7872 35.3195 88.0557 35.8903ZM94.969 24.6323C94.4827 24.9283 93.9014 25.0763 93.2248 25.0763C92.5483 25.0763 91.9563 24.9283 91.4489 24.6323C90.9626 24.3363 90.5821 23.9346 90.3073 23.4272C90.0324 22.8987 89.895 22.3384 89.895 21.7465C89.895 21.1122 90.0324 20.5414 90.3073 20.034C90.5821 19.5266 90.9732 19.1249 91.4806 18.8289C91.988 18.5329 92.5694 18.3849 93.2248 18.3849C93.9014 18.3849 94.4827 18.5329 94.969 18.8289C95.4764 19.1249 95.8569 19.5266 96.1107 20.034C96.3855 20.5414 96.5229 21.1122 96.5229 21.7465C96.5229 22.3807 96.3855 22.9515 96.1107 23.4589C95.8569 23.9452 95.4764 24.3363 94.969 24.6323Z" fill="black"/>
<path id="Vector_8" fill-rule="evenodd" clip-rule="evenodd" d="M111.301 30.2137C109.715 30.2137 108.277 29.8649 106.988 29.1672C105.719 28.4484 104.715 27.4759 103.975 26.2496C103.235 25.0234 102.865 23.6492 102.865 22.127C102.865 20.6048 103.235 19.2412 103.975 18.0361C104.715 16.831 105.719 15.8796 106.988 15.182C108.256 14.4631 109.694 14.1037 111.301 14.1037C112.907 14.1037 114.345 14.4526 115.613 15.1502C116.882 15.8479 117.886 16.8099 118.626 18.0361C119.366 19.2412 119.736 20.6048 119.736 22.127C119.736 23.6492 119.366 25.0234 118.626 26.2496C117.886 27.4759 116.882 28.4484 115.613 29.1672C114.345 29.8649 112.907 30.2137 111.301 30.2137ZM111.301 25.8057C111.998 25.8057 112.611 25.6577 113.14 25.3617C113.668 25.0446 114.07 24.6112 114.345 24.0615C114.641 23.4907 114.789 22.8458 114.789 22.127C114.789 21.4082 114.641 20.7845 114.345 20.256C114.049 19.7063 113.637 19.2835 113.108 18.9875C112.601 18.6703 111.998 18.5118 111.301 18.5118C110.624 18.5118 110.021 18.6703 109.493 18.9875C108.964 19.2835 108.552 19.7063 108.256 20.256C107.96 20.8057 107.812 21.4399 107.812 22.1587C107.812 22.8564 107.96 23.4907 108.256 24.0615C108.552 24.6112 108.964 25.0446 109.493 25.3617C110.021 25.6577 110.624 25.8057 111.301 25.8057Z" fill="black"/>
<path id="Vector_9" fill-rule="evenodd" clip-rule="evenodd" d="M138.031 30.182C136.996 30.182 136.044 29.9812 135.177 29.5795C134.721 29.3681 134.309 29.1157 133.941 28.8223V36.366H129.152V14.4526H134.004V15.5163C134.356 15.2284 134.747 14.9795 135.177 14.7697C136.044 14.3468 136.996 14.1354 138.031 14.1354C139.49 14.1354 140.78 14.4843 141.9 15.182C143.042 15.8796 143.93 16.831 144.564 18.0361C145.22 19.2412 145.547 20.6154 145.547 22.1587C145.547 23.7021 145.22 25.0763 144.564 26.2814C143.93 27.4865 143.042 28.4378 141.9 29.1355C140.78 29.8332 139.49 30.182 138.031 30.182ZM137.144 25.8057C137.841 25.8057 138.444 25.6471 138.951 25.33C139.48 25.0129 139.892 24.5794 140.188 24.0298C140.484 23.4801 140.632 22.8564 140.632 22.1587C140.632 21.4399 140.484 20.8057 140.188 20.256C139.892 19.7063 139.48 19.2835 138.951 18.9875C138.444 18.6703 137.852 18.5118 137.175 18.5118C136.499 18.5118 135.896 18.6703 135.368 18.9875C134.86 19.2835 134.459 19.7063 134.163 20.256C133.867 20.8057 133.719 21.4399 133.719 22.1587C133.719 22.8564 133.856 23.4801 134.131 24.0298C134.427 24.5794 134.839 25.0129 135.368 25.33C135.896 25.6471 136.488 25.8057 137.144 25.8057Z" fill="black"/>
<path id="Vector_10" d="M150.296 29.8966C151.184 30.1292 152.082 30.2454 152.991 30.2454C154.915 30.2454 156.437 29.8015 157.558 28.9135C158.699 28.0256 159.27 26.8311 159.27 25.33C159.27 24.3575 159.091 23.5752 158.731 22.9833C158.372 22.3702 157.907 21.8839 157.336 21.5245C156.765 21.1651 156.162 20.8796 155.528 20.6682C154.894 20.4568 154.291 20.2771 153.721 20.1291C153.15 19.9811 152.685 19.812 152.325 19.6217C151.966 19.4314 151.786 19.1777 151.786 18.8606C151.786 18.5646 151.924 18.3426 152.198 18.1946C152.473 18.0255 152.885 17.941 153.435 17.941C154.006 17.941 154.587 18.0572 155.179 18.2898C155.792 18.5223 156.342 18.9241 156.828 19.4949L159.587 16.7042C158.89 15.8162 157.981 15.1502 156.86 14.7063C155.761 14.2412 154.556 14.0086 153.245 14.0086C151.998 14.0086 150.909 14.22 149.979 14.6428C149.048 15.0657 148.329 15.6471 147.822 16.387C147.315 17.1058 147.061 17.9621 147.061 18.9558C147.061 19.886 147.241 20.6577 147.6 21.2708C147.959 21.8627 148.425 22.3279 148.995 22.6661C149.566 23.0044 150.169 23.2687 150.803 23.4589C151.437 23.6492 152.04 23.8289 152.611 23.9981C153.181 24.1461 153.647 24.3258 154.006 24.5372C154.387 24.7275 154.577 25.0129 154.577 25.3934C154.577 25.6894 154.418 25.9219 154.101 26.0911C153.805 26.2602 153.372 26.3448 152.801 26.3448C151.976 26.3448 151.215 26.1968 150.518 25.9008C149.82 25.5837 149.217 25.1503 148.71 24.6006L145.951 27.3913C146.48 27.9621 147.114 28.4696 147.854 28.9135C148.615 29.3363 149.429 29.664 150.296 29.8966Z" fill="black"/>
<path id="Vector_11" d="M168.118 30.2137C166.702 30.2137 165.444 29.9283 164.345 29.3575C163.266 28.7655 162.421 27.9621 161.808 26.9473C161.194 25.9114 160.888 24.7275 160.888 23.3955V14.4526H165.74V23.3321C165.74 23.8606 165.824 24.3152 165.994 24.6957C166.184 25.0763 166.459 25.3723 166.818 25.5837C167.178 25.7951 167.611 25.9008 168.118 25.9008C168.837 25.9008 169.408 25.6788 169.831 25.2348C170.254 24.7697 170.465 24.1355 170.465 23.3321V14.4526H175.317V23.3638C175.317 24.7169 175.011 25.9114 174.397 26.9473C173.784 27.9621 172.939 28.7655 171.86 29.3575C170.782 29.9283 169.535 30.2137 168.118 30.2137Z" fill="black"/>
<path id="Vector_12" d="M182.581 14.4526H177.729V29.8649H182.581V20.8585C182.581 20.33 182.687 19.886 182.898 19.5266C183.131 19.1672 183.438 18.8923 183.818 18.7021C184.199 18.4906 184.632 18.3849 185.118 18.3849C185.816 18.3849 186.397 18.6069 186.862 19.0509C187.349 19.4737 187.592 20.0763 187.592 20.8585V29.8649H192.444V20.8585C192.444 20.33 192.55 19.886 192.761 19.5266C192.994 19.1672 193.3 18.8923 193.681 18.7021C194.061 18.4906 194.495 18.3849 194.981 18.3849C195.679 18.3849 196.26 18.6069 196.725 19.0509C197.211 19.4737 197.454 20.0763 197.454 20.8585V29.8649H202.307V20.3194C202.307 19.0298 202.032 17.9304 201.482 17.0213C200.953 16.091 200.224 15.3828 199.294 14.8966C198.385 14.3891 197.338 14.1354 196.154 14.1354C194.949 14.1354 193.86 14.3997 192.888 14.9283C192.256 15.265 191.704 15.6996 191.231 16.232C190.79 15.6751 190.254 15.2194 189.621 14.8648C188.776 14.3786 187.814 14.1354 186.736 14.1354C185.594 14.1354 184.569 14.3786 183.66 14.8648C183.264 15.0671 182.905 15.3094 182.581 15.5917V14.4526Z" fill="black"/>
</g>
<defs>
<clipPath id="clip0_1_96">
<rect width="202" height="40" fill="white" transform="translate(0.75 0.00012207)"/>
</clipPath>
</defs>
</svg>
