<svg width="176" height="40" viewBox="0 0 176 40" fill="none" xmlns="http://www.w3.org/2000/svg">
<g id="logoipsum-288" clip-path="url(#clip0_1_65)">
<path id="Vector" d="M170.894 7.66427L175.068 11.8669C175.214 11.983 175.322 12.1397 175.378 12.3172C175.463 13.3516 174.68 13.4082 173.88 13.466C173.534 13.491 173.185 13.5163 172.902 13.6211C171.498 14.001 170.246 14.8034 169.315 15.9194C168.383 17.0354 167.818 18.411 167.695 19.8594C167.605 20.0267 167.469 20.1644 167.302 20.2559C167.136 20.3475 166.947 20.3889 166.757 20.3754C166.537 20.3559 166.331 20.2596 166.175 20.1033L164.805 18.7239C164.815 18.8183 164.815 18.9118 164.815 18.987V19.8969C164.815 19.9544 164.817 20.0098 164.81 20.0651C164.801 20.1271 164.78 20.1889 164.731 20.2533V20.3378C164.731 20.3809 164.736 20.421 164.741 20.4617C164.751 20.545 164.762 20.6308 164.731 20.7506C164.701 20.8623 164.698 20.9926 164.694 21.1089C164.693 21.178 164.691 21.2422 164.684 21.2946C164.674 21.3673 164.674 21.4449 164.668 21.5224C164.662 21.595 164.65 21.6675 164.618 21.7355C164.574 21.8307 164.559 21.9216 164.555 22.014C164.552 22.0582 164.552 22.1027 164.552 22.1483L164.496 22.4391L162.367 32.5892L162.198 33.349L162.132 34.456L161.194 39.2496L161.044 40.0001H85.1248L84.7589 39.6342L84.6932 39.9532H76.5694L72.0478 35.4035L72.4793 33.349H69.9277L68.3424 31.7449C66.3749 33.1776 63.9934 33.9286 61.56 33.8838C58.9442 33.9867 56.3941 33.0489 54.4681 31.2759L52.0009 28.79L51.4662 31.2852C51.4006 31.6417 51.3161 31.9795 51.2223 32.3078L51.1379 32.6174L50.9972 33.0676C50.9856 33.1067 50.9699 33.1445 50.9503 33.1802C50.8106 33.5938 50.6446 33.998 50.4531 34.3903C50.4581 34.4055 50.4581 34.422 50.4531 34.4372C50.4285 34.4892 50.4003 34.5393 50.3686 34.5873C50.227 34.8676 50.0705 35.14 49.8996 35.4035C49.8679 35.4514 49.8397 35.5016 49.8152 35.5536L49.712 35.6661C49.4827 35.995 49.232 36.3083 48.9615 36.6042C48.8873 36.6784 48.8131 36.7481 48.7377 36.8165C48.6607 36.8865 48.5825 36.9552 48.5018 37.0263L48.2955 37.2233C48.1654 37.3314 48.0323 37.4357 47.8964 37.5362C47.7843 37.6191 47.6703 37.6993 47.5544 37.7768C45.6211 38.9223 43.391 39.4675 41.1473 39.3434C38.0516 39.3434 35.575 38.4428 34.0084 36.8669L29.5994 32.4297C27.8383 33.4263 25.8442 33.9378 23.8208 33.9119C21.2129 33.9926 18.6782 33.0421 16.7664 31.2665L14.2993 28.7806L13.5019 32.6174L13.3424 33.3772H5.04036L0.5 28.7993L0.734521 27.6924L5.72515 3.7243L5.87521 2.97384H14.2054L14.4212 3.18025V2.97384H70.5469L70.7533 3.18025V2.97384H78.8771L83.4174 7.5517L83.1923 8.64925L82.9484 9.85002H85.2842L85.6501 10.2159C86.6779 9.61356 87.8453 9.29017 89.0366 9.27781C89.9126 9.26051 90.7825 9.4269 91.5903 9.7662C92.3982 10.1055 93.126 10.6101 93.727 11.2477L93.605 11.107L95.8095 13.3303C97.151 10.8069 100.162 9.27781 104.252 9.27781C107.423 9.27781 109.759 10.0845 111.175 11.5479L112.77 13.1521L113.305 10.5723L113.464 9.82185H121.597L123.924 12.1577L124.252 10.5817L124.412 9.83124H140.416L140.847 10.2628C141.931 9.62318 143.172 9.2983 144.431 9.3247C145.188 9.29515 145.942 9.43377 146.64 9.73059C147.337 10.0274 147.96 10.4751 148.464 11.0414C148.438 11.0119 148.413 10.9824 148.388 10.9534C148.343 10.8996 148.298 10.8471 148.25 10.7985L149.065 11.6136C149.775 10.8783 150.629 10.296 151.572 9.90247C152.516 9.50889 153.53 9.31222 154.552 9.3247C155.095 9.29132 155.637 9.33752 156.163 9.46045L155.275 8.56485C155.154 8.4354 155.072 8.27433 155.039 8.10033C155.006 7.92633 155.023 7.74643 155.087 7.58159C155.152 7.41669 155.262 7.27355 155.405 7.16866C155.548 7.06377 155.717 7.00141 155.894 6.98887H156.607C156.799 6.97055 156.99 6.94238 157.179 6.90442C158.176 6.69486 159.114 6.26636 159.925 5.64982C160.737 5.03335 161.401 4.2443 161.87 3.33971C161.911 3.26974 161.948 3.19777 161.982 3.12396V3.07707C162.305 2.38227 162.501 1.63593 162.564 0.872538C162.58 0.635325 162.687 0.413228 162.861 0.251308C163.035 0.08933 163.264 -0.00044777 163.502 0.000124792H163.577C163.719 0.0136373 163.857 0.0595568 163.979 0.134333C164.101 0.209167 164.204 0.310854 164.281 0.431665C164.956 1.08833 168.708 4.90629 168.708 4.90629C169.021 5.2425 168.998 5.67897 168.974 6.12058C168.959 6.39364 168.944 6.6687 169.008 6.9232C169.179 6.95383 169.352 6.97702 169.524 6.99271C169.69 7.00765 169.856 7.01578 170.022 7.01699C170.216 7.02105 170.405 7.08552 170.561 7.20152C170.717 7.31747 170.834 7.47922 170.894 7.66427Z" fill="black"/>
<path id="Vector_2" d="M43.4361 10.7507H49.3648L46.044 26.5011C45.4343 29.4841 44.271 31.1916 42.5074 32.4017C40.7236 33.4368 38.6753 33.926 36.6163 33.8088C32.6951 33.8088 28.9333 32.1672 28.5581 28.1803H34.5243C34.7119 29.1184 35.575 29.6531 36.8883 29.6531C38.6613 29.6531 39.4774 28.5837 39.8433 26.9045L40.1997 25.169H40.0684C39.5449 25.7445 38.9099 26.2075 38.202 26.53C37.494 26.8525 36.728 27.0278 35.9502 27.0452C32.4981 27.0452 29.7588 24.2966 29.8151 20.2722C29.8902 15.5817 32.9483 10.2535 38.0797 10.2535C39.0521 10.188 40.0229 10.4023 40.8774 10.8711C41.7319 11.3398 42.4342 12.0435 42.9014 12.8989H43.0046L43.4361 10.7507ZM38.3423 22.6455C40.6219 22.6455 41.8883 20.0189 41.9258 17.7582C41.9258 16.2479 41.3348 14.7 39.59 14.7C37.2072 14.7 35.9971 17.3548 35.9596 19.6343C35.9596 21.1728 36.5506 22.6455 38.2954 22.6455M104.9 23.1522C104.9 24.1559 104.036 24.5592 102.901 24.5592C101.025 24.5592 100.397 23.6211 100.387 22.3078H94.4868C94.3836 27.2047 98.7551 28.4148 102.639 28.4148C107.601 28.4148 110.819 26.2666 110.885 21.9796C110.885 18.5555 107.967 17.5142 105.097 16.8482C102.892 16.3417 101.926 15.9758 101.935 15.1409C101.945 14.306 102.93 13.9683 103.896 13.9683C105.106 13.9683 105.931 14.3998 106.016 15.5068H111.748C111.682 11.4167 107.995 10.216 104.243 10.216C99.6838 10.216 96.1284 12.2891 96.0721 16.2103C96.0721 19.2966 98.1547 20.4317 101.297 21.2385C103.314 21.7732 104.918 21.942 104.9 23.1522ZM148.736 13.2929H148.633C148.378 12.3691 147.814 11.5604 147.036 11.0007C146.258 10.4411 145.312 10.1642 144.355 10.216C141.804 10.216 140.247 11.4824 138.774 13.3961H138.671L139.215 10.7507H133.248L129.674 27.8426H135.913L137.789 18.6212C138.22 16.6137 139.243 15.2066 140.791 15.2066C142.339 15.2066 142.545 16.4448 142.226 17.9552L140.162 27.8426H146.4L148.277 18.6212C148.708 16.4824 149.731 15.2066 151.278 15.2066C152.826 15.2066 153.033 16.3792 152.714 17.9552L150.65 27.8426H156.888L159.121 17.6831C160.059 13.396 158.624 10.1784 154.506 10.1784C153.36 10.1737 152.232 10.4563 151.224 11.0004C150.216 11.5445 149.361 12.3327 148.736 13.2929ZM1.64441 27.8426H8.08906L13.0703 3.87445H6.63503L1.64441 27.8426ZM21.044 10.2441C25.3967 10.2441 29.5525 12.6267 29.4868 18.0208C29.4305 23.9214 25.4155 28.3398 19.2804 28.3398C15.059 28.3398 10.8377 25.9946 10.9127 20.6287C11.0159 14.8689 14.9746 10.2441 21.044 10.2441ZM19.4587 24.1559C22.2073 24.1559 23.211 20.169 23.211 17.8238C23.211 16.1447 22.6951 14.503 20.8845 14.503C18.1641 14.503 17.2354 18.7244 17.2354 20.9008C17.2354 22.6456 17.7232 24.1559 19.4962 24.1559M15.2185 3.87445L14.2804 8.66807H68.3986L69.3367 3.87445H15.2185ZM58.7457 10.2441C63.0984 10.2441 67.2541 12.6267 67.1885 18.0208C67.1322 23.9214 63.1078 28.3398 56.9727 28.3398C52.7513 28.3398 48.5299 25.9946 48.6144 20.6287C48.7457 14.8689 52.7044 10.2441 58.7457 10.2441ZM57.1885 24.1559C59.9371 24.1559 60.9408 20.169 60.9408 17.8238C60.9408 16.1447 60.4155 14.503 58.605 14.503C55.8939 14.503 54.9558 18.7244 54.9558 20.9008C54.9558 22.6456 55.4436 24.1559 57.226 24.1559M71.5506 3.87445L70.6125 8.66807H76.8414L77.7795 3.87445H71.5506ZM66.56 27.8426H72.7982L76.3723 10.7507H70.0965L66.56 27.8426ZM86.4661 28.4148C85.4733 28.4853 84.4804 28.2778 83.5988 27.8155C82.7173 27.3532 81.982 26.6544 81.4755 25.7976H81.3723L79.4962 34.4466H73.1828L78.2485 10.7507H84.1772L83.7082 13.0302C84.3273 12.1882 85.1293 11.4975 86.0538 11.01C86.9783 10.5226 88.0013 10.2511 89.0459 10.216C92.7982 10.216 95.0027 13.4336 94.9371 17.6175C94.8526 22.8801 92.1228 28.4148 86.4286 28.4148H86.4661ZM86.2222 15.0565C83.8114 15.0565 82.3292 18.1428 82.2917 20.5162C82.2917 22.1672 82.8733 24.0058 84.8526 24.0058C87.4324 24.0058 88.4924 20.5912 88.5205 18.3116C88.5205 16.7638 88.0703 15.0565 86.2222 15.0565ZM122.292 25.1503H122.395L121.851 27.8614H127.779L131.354 10.7694H125.125L123.136 20.319C122.733 22.2985 121.513 23.3398 119.975 23.3398C118.436 23.3398 118.098 21.8951 118.408 20.3848L120.425 10.7694H114.196L111.991 21.3229C111.053 25.9195 113.192 28.3961 116.776 28.3961C117.901 28.3851 119.004 28.0776 119.972 27.5044C120.94 26.9312 121.741 26.1126 122.292 25.1315V25.1503ZM155.753 34.5311L156.691 29.7375H82.7138L81.7757 34.5311H155.753Z" fill="white"/>
<path id="Vector_3" d="M162.46 15.4411C162.399 15.4364 162.339 15.4195 162.284 15.3914C162.228 15.3634 162.179 15.3247 162.139 15.2776C162.099 15.2305 162.069 15.176 162.05 15.1171C162.031 15.0582 162.024 14.9962 162.029 14.9345C162.107 14.0991 162.008 13.2565 161.738 12.4621C161.468 11.6677 161.033 10.9392 160.461 10.3246C159.89 9.70991 159.195 9.22289 158.423 8.89539C157.65 8.5679 156.817 8.40732 155.978 8.42418C155.854 8.42418 155.735 8.37477 155.647 8.2868C155.559 8.19884 155.509 8.07953 155.509 7.95513C155.509 7.83073 155.559 7.71144 155.647 7.62348C155.735 7.53551 155.854 7.48609 155.978 7.48609C156.203 7.50063 156.429 7.50063 156.654 7.48609C158.32 7.30858 159.872 6.55579 161.043 5.35726C162.215 4.15873 162.931 2.58943 163.07 0.919489C163.08 0.801706 163.133 0.69184 163.22 0.611837C163.307 0.531835 163.421 0.487599 163.539 0.487978C163.601 0.492713 163.661 0.509601 163.716 0.537662C163.771 0.565723 163.82 0.604406 163.86 0.651487C163.901 0.69857 163.931 0.753115 163.95 0.811991C163.969 0.870867 163.976 0.932904 163.971 0.994539C163.893 1.8292 163.992 2.67095 164.261 3.46473C164.531 4.2585 164.965 4.98643 165.535 5.60093C166.106 6.21542 166.799 6.70264 167.57 7.03073C168.342 7.35882 169.174 7.52038 170.012 7.50485C170.136 7.50485 170.256 7.55428 170.344 7.64224C170.432 7.7302 170.481 7.8495 170.481 7.9739C170.481 8.0983 170.432 8.21761 170.344 8.30557C170.256 8.39353 170.136 8.44294 170.012 8.44294C168.23 8.47238 166.521 9.15892 165.214 10.3709C163.907 11.5828 163.093 13.2347 162.93 15.0096C162.92 15.1274 162.867 15.2373 162.78 15.3173C162.693 15.3973 162.579 15.4415 162.46 15.4411Z" fill="white"/>
</g>
<defs>
<clipPath id="clip0_1_65">
<rect width="175" height="40" fill="white" transform="translate(0.5 0.00012207)"/>
</clipPath>
</defs>
</svg>
